<?xml version="1.0" standalone="no"?>
<!DOCTYPE svg PUBLIC "-//W3C//DTD SVG 20010904//EN"
 "http://www.w3.org/TR/2001/REC-SVG-20010904/DTD/svg10.dtd">
<svg version="1.0" xmlns="http://www.w3.org/2000/svg"
 width="1024.000000pt" height="1024.000000pt" viewBox="0 0 1024.000000 1024.000000"
 preserveAspectRatio="xMidYMid meet">

<g transform="translate(0.000000,1024.000000) scale(0.100000,-0.100000)"
fill="currentColor" stroke="none">
<path d="M480 8582 c0 -643 3 -1257 7 -1365 l6 -196 63 4 c35 2 66 0 69 -4 2
-5 18 -6 35 -2 50 10 200 1 200 -12 0 -9 -49 -12 -183 -12 l-182 0 -8 -145
c-4 -80 -6 -511 -5 -959 2 -655 6 -815 16 -819 10 -3 10 -7 0 -20 -11 -12 -14
-448 -16 -2284 l-3 -2268 3145 0 c1729 0 3151 3 3160 6 11 4 13 11 6 30 -5 13
-6 24 -2 24 4 0 8 11 8 25 1 14 -1 23 -5 20 -4 -2 -8 3 -8 11 0 31 22 6 23
-27 1 -19 2 -46 3 -61 l1 -28 523 0 c288 0 950 3 1470 7 l947 6 0 2433 0 2433
-77 3 c-62 2 -78 6 -81 19 -2 14 8 15 78 11 l80 -5 -2 339 -3 339 -27 3 c-19
2 -25 8 -21 18 3 8 9 14 15 14 5 0 6 -5 2 -12 -5 -8 -2 -9 10 -5 10 4 20 7 22
7 2 0 4 455 4 1012 l0 1011 -466 -6 c-256 -3 -469 -9 -473 -12 -3 -4 -7 -599
-9 -1323 -3 -1313 -1 -1428 29 -1381 7 11 9 11 9 1 0 -7 5 -10 10 -7 6 3 10 1
10 -4 0 -6 -11 -11 -25 -11 -29 0 -40 -19 -38 -70 0 -19 1 -191 2 -382 0 -253
4 -348 12 -348 8 0 8 -4 1 -13 -17 -20 -15 -686 1 -705 9 -12 9 -16 -1 -19
-18 -7 -18 -493 1 -493 9 0 8 -3 -2 -9 -11 -7 -11 -9 0 -14 10 -4 10 -6 2 -6
-10 -1 -13 -68 -13 -301 l0 -300 -111 0 -110 0 -21 47 c-35 82 -165 356 -321
678 -82 171 -182 380 -222 465 -332 710 -401 855 -773 1615 -212 433 -549
1130 -702 1450 -26 55 -86 179 -133 275 -196 404 -267 552 -267 555 0 2 -51
108 -113 236 -63 129 -133 276 -157 327 l-44 92 -708 0 -709 0 -15 -37 c-24
-58 -671 -1367 -1195 -2417 -258 -517 -469 -943 -469 -947 0 -4 10 -10 23 -12
14 -3 12 -4 -6 -2 -27 2 -37 -16 -470 -882 l-442 -883 -177 0 -176 0 -4 873
c-2 696 -6 877 -16 889 -10 13 -10 17 0 20 11 4 13 186 11 958 -2 524 -5 955
-7 957 -2 2 -13 5 -25 6 -33 2 -25 27 9 27 l30 0 0 904 0 904 1204 4 c662 1
1207 6 1211 9 3 4 6 35 7 70 1 35 5 72 11 83 6 13 6 16 -2 12 -14 -9 -15 68
-1 94 7 13 7 21 0 25 -6 4 -7 13 -1 23 5 9 5 42 1 72 -4 30 -4 65 1 76 4 13 3
26 -3 32 -6 6 -8 18 -4 28 12 31 26 0 28 -61 0 -33 0 -91 -1 -130 -1 -38 -1
-127 -2 -196 l0 -126 398 -6 c516 -9 3065 -9 3301 0 l182 6 0 164 c0 102 4
163 10 163 6 0 10 -30 11 -67 0 -38 2 -76 4 -85 2 -10 -1 -18 -7 -18 -5 0 -6
-10 -2 -22 4 -13 6 -48 5 -79 l-2 -56 53 -6 c29 -4 247 -7 485 -7 l432 0 1
-312 c0 -171 3 -322 6 -335 6 -22 11 -24 73 -23 166 2 547 1 674 -3 40 -1 56
2 53 10 -3 8 5 8 30 1 19 -5 51 -8 72 -6 l37 3 5 785 c3 432 4 788 2 793 -5
11 -1876 9 -1905 -2 -23 -9 -24 -12 -19 -85 3 -51 1 -76 -6 -76 -7 0 -12 31
-14 83 l-3 82 -3332 3 -3333 2 0 -67 c-1 -54 -3 -64 -11 -49 -6 10 -9 36 -6
57 3 26 2 37 -6 32 -6 -4 -8 0 -4 10 6 16 -19 17 -313 17 l-320 0 0 -1168z
m3446 1027 c-4 -56 -2 -86 5 -96 9 -10 9 -20 1 -38 -8 -16 -8 -33 -2 -49 10
-27 5 -37 -15 -30 -10 4 -13 25 -10 82 2 42 5 104 6 137 1 33 3 63 6 68 12 21
15 -1 9 -74z m5254 -7 c3 -3 -10 3 -28 14 -18 10 -43 30 -55 43 -13 14 -1 8
28 -14 28 -20 52 -40 55 -43z m-4604 46 c3 -4 -1 -5 -10 -4 -8 1 -18 5 -22 8
-3 4 1 5 10 4 8 -1 18 -5 22 -8z m3994 -13 c13 -14 21 -25 18 -25 -2 0 -15 11
-28 25 -13 14 -21 25 -18 25 2 0 15 -11 28 -25z m651 -2 c13 -16 12 -17 -3 -4
-10 7 -18 15 -18 17 0 8 8 3 21 -13z m319 -27 c19 -24 6 -19 -26 10 -19 17
-22 22 -8 16 11 -6 26 -18 34 -26z m-8407 -39 c-3 -4 -6 -7 -7 -5 -1 2 -8 12
-16 22 -14 18 -14 18 7 6 12 -8 19 -18 16 -23z m6028 -4 c13 -16 12 -17 -3 -4
-10 7 -18 15 -18 17 0 8 8 3 21 -13z m669 -68 c0 -43 -4 -75 -10 -75 -6 0 -10
32 -10 75 0 43 4 75 10 75 6 0 10 -32 10 -75z m920 33 c0 -6 -6 -5 -15 2 -8 7
-15 14 -15 16 0 2 7 1 15 -2 8 -4 15 -11 15 -16z m-7615 -72 c-3 -39 -2 -85 4
-102 8 -27 7 -32 -7 -30 -14 2 -17 17 -19 84 -1 57 2 82 10 82 8 0 7 4 -2 9
-8 5 -11 16 -8 26 4 9 12 13 18 10 7 -5 8 -32 4 -79z m7880 64 c10 -11 16 -20
13 -20 -3 0 -13 9 -23 20 -10 11 -16 20 -13 20 3 0 13 -9 23 -20z m-3844 -7
c13 -16 12 -17 -3 -4 -10 7 -18 15 -18 17 0 8 8 3 21 -13z m4350 -10 c13 -16
12 -17 -3 -4 -10 7 -18 15 -18 17 0 8 8 3 21 -13z m-2056 -23 c16 -16 26 -30
22 -30 -3 0 -20 14 -37 30 -17 17 -27 30 -22 30 4 0 21 -13 37 -30z m1330 10
c3 -6 -1 -7 -9 -4 -18 7 -21 14 -7 14 6 0 13 -4 16 -10z m-1789 -52 l29 -33
-32 29 c-31 28 -38 36 -30 36 2 0 16 -15 33 -32z m-705 -15 c13 -16 12 -17 -3
-4 -10 7 -18 15 -18 17 0 8 8 3 21 -13z m2364 -23 c10 -11 16 -20 13 -20 -3 0
-13 9 -23 20 -10 11 -16 20 -13 20 3 0 13 -9 23 -20z m-836 -67 c0 -53 -3 -72
-9 -58 -12 28 -12 135 0 135 6 0 10 -32 9 -77z m-3268 50 c13 -16 12 -17 -3
-4 -10 7 -18 15 -18 17 0 8 8 3 21 -13z m1999 -28 c13 -14 21 -25 18 -25 -2 0
-15 11 -28 25 -13 14 -21 25 -18 25 2 0 15 -11 28 -25z m2461 8 c13 -16 12
-17 -3 -4 -10 7 -18 15 -18 17 0 8 8 3 21 -13z m179 -18 c19 -19 32 -35 29
-35 -3 0 -20 16 -39 35 -19 19 -32 35 -29 35 3 0 20 -16 39 -35z m-2749 8 c13
-16 12 -17 -3 -4 -10 7 -18 15 -18 17 0 8 8 3 21 -13z m2230 -40 c13 -16 12
-17 -3 -4 -10 7 -18 15 -18 17 0 8 8 3 21 -13z m129 -50 c0 -8 -36 16 -55 38
-16 19 -13 18 18 -5 20 -16 37 -30 37 -33z m-7672 -33 c0 -33 -4 -58 -7 -54
-3 3 -6 9 -7 12 0 4 -4 26 -8 49 -8 43 -2 68 14 58 5 -3 8 -32 8 -65z m8448
49 c19 -22 19 -22 -3 -8 -13 8 -23 17 -23 21 0 12 6 9 26 -13z m-2505 -16 c13
-16 12 -17 -3 -4 -10 7 -18 15 -18 17 0 8 8 3 21 -13z m-226 -13 c10 -11 16
-20 13 -20 -3 0 -13 9 -23 20 -10 11 -16 20 -13 20 3 0 13 -9 23 -20z m979
-15 c3 -8 1 -15 -3 -15 -5 0 -7 -10 -3 -22 3 -14 2 -19 -6 -14 -14 8 -16 66
-3 66 5 0 11 -7 15 -15z m1776 9 c0 -8 -19 -13 -24 -6 -3 5 1 9 9 9 8 0 15 -2
15 -3z m-6829 -21 c13 -16 12 -17 -3 -4 -10 7 -18 15 -18 17 0 8 8 3 21 -13z
m5934 -23 c10 -11 16 -20 13 -20 -3 0 -13 9 -23 20 -10 11 -16 20 -13 20 3 0
13 -9 23 -20z m346 3 c13 -16 12 -17 -3 -4 -10 7 -18 15 -18 17 0 8 8 3 21
-13z m-300 -40 c13 -16 12 -17 -3 -4 -10 7 -18 15 -18 17 0 8 8 3 21 -13z
m-4020 -20 c13 -16 12 -17 -3 -4 -10 7 -18 15 -18 17 0 8 8 3 21 -13z m-3602
-42 c0 -10 -2 -12 -6 -3 -2 6 -8 10 -12 8 -4 -3 -8 4 -8 15 -2 17 1 18 13 9 8
-7 14 -20 13 -29z m6191 -16 c13 -14 21 -25 18 -25 -2 0 -15 11 -28 25 -13 14
-21 25 -18 25 2 0 15 -11 28 -25z m-389 -12 c13 -16 12 -17 -3 -4 -10 7 -18
15 -18 17 0 8 8 3 21 -13z m-5801 -32 c0 -14 -2 -14 -10 -1 -15 23 -12 -6 3
-30 10 -17 9 -22 -3 -30 -8 -5 -10 -10 -5 -10 6 0 11 -16 12 -35 0 -19 -2 -33
-6 -31 -4 3 -5 -22 -4 -55 1 -38 -1 -57 -8 -53 -13 8 -9 134 5 134 6 0 5 5 -2
12 -7 7 -12 40 -12 76 0 56 2 63 15 52 8 -7 15 -20 15 -29z m8368 4 c-3 -3 -9
2 -12 12 -6 14 -5 15 5 6 7 -7 10 -15 7 -18z m-2507 -32 c13 -16 12 -17 -3 -4
-10 7 -18 15 -18 17 0 8 8 3 21 -13z m-151 -120 c0 -8 -9 0 -50 45 l-45 47 48
-45 c26 -24 47 -45 47 -47z m215 67 c10 -11 16 -20 13 -20 -3 0 -13 9 -23 20
-10 11 -16 20 -13 20 3 0 13 -9 23 -20z m-135 -25 c13 -14 21 -25 18 -25 -2 0
-15 11 -28 25 -13 14 -21 25 -18 25 2 0 15 -11 28 -25z m-3549 -2 c13 -16 12
-17 -3 -4 -10 7 -18 15 -18 17 0 8 8 3 21 -13z m6046 -116 c4 -7 -12 3 -35 21
-23 19 -45 39 -49 45 -4 7 12 -3 35 -21 23 -19 45 -39 49 -45z m-8298 -117
c-1 -32 -5 -57 -9 -55 -12 7 -11 115 1 115 5 0 9 -26 8 -60z m8522 -27 c13
-16 12 -17 -3 -4 -10 7 -18 15 -18 17 0 8 8 3 21 -13z m-205 -25 l29 -33 -32
29 c-31 28 -38 36 -30 36 2 0 16 -15 33 -32z m-8314 -95 c2 -34 1 -60 -3 -57
-4 2 -4 -8 0 -23 6 -23 7 -66 2 -106 -1 -5 -5 -5 -11 -2 -11 7 -13 242 -3 259
9 13 11 3 15 -71z m8309 -20 c13 -16 12 -17 -3 -4 -10 7 -18 15 -18 17 0 8 8
3 21 -13z m-275 -75 l29 -33 -32 29 c-31 28 -38 36 -30 36 2 0 16 -15 33 -32z
m214 -74 c0 -2 -9 0 -20 6 -11 6 -20 13 -20 16 0 2 9 0 20 -6 11 -6 20 -13 20
-16z m-8250 -65 c0 -11 -4 -18 -10 -14 -5 3 -7 12 -3 20 7 21 13 19 13 -6z
m-4 -38 c-4 -5 0 -12 6 -14 7 -3 3 -6 -9 -6 -16 -1 -21 3 -17 14 4 8 10 15 16
15 5 0 7 -4 4 -9z m3394 -53 c0 -39 -4 -57 -9 -48 -7 13 -8 46 -2 98 0 6 3 12
6 12 3 0 5 -28 5 -62z m-3394 -27 c-1 -46 -16 -50 -16 -4 0 20 9 53 15 53 1 0
2 -22 1 -49z m8379 -9 c-3 -3 -11 0 -18 7 -9 10 -8 11 6 5 10 -3 15 -9 12 -12z
m-3875 -17 c13 -14 21 -25 18 -25 -2 0 -15 11 -28 25 -13 14 -21 25 -18 25 2
0 15 -11 28 -25z m-1109 -85 c-3 -10 -8 -4 -11 15 -4 17 -4 34 -1 40 7 14 19
-37 12 -55z m-80 -37 c13 -16 12 -17 -3 -4 -10 7 -18 15 -18 17 0 8 8 3 21
-13z m79 -5 c0 -12 -3 -18 -7 -14 -11 10 -12 36 -2 36 5 0 9 -10 9 -22z m681
5 c13 -16 12 -17 -3 -4 -10 7 -18 15 -18 17 0 8 8 3 21 -13z m-4070 -71 c-5
-2 -7 -13 -4 -25 3 -18 2 -19 -6 -6 -5 8 -8 24 -6 35 2 10 4 21 4 24 1 3 6 -2
11 -10 5 -8 5 -16 1 -18z m3386 -4 c-7 -4 -7 -8 -2 -8 6 0 10 -50 10 -130 0
-72 -4 -129 -8 -127 -9 3 -17 249 -9 280 4 14 7 16 13 6 5 -8 3 -17 -4 -21z
m4983 -25 c0 -26 -16 -12 -18 15 -1 21 0 23 8 12 5 -8 10 -21 10 -27z m-8372
-77 c-4 -43 -18 -29 -18 17 1 32 3 38 10 25 6 -9 9 -28 8 -42z m4031 1 c8 -10
7 -14 -2 -14 -8 0 -14 6 -14 14 0 7 1 13 2 13 2 0 8 -6 14 -13z m4328 -3 c-3
-4 -2 -16 4 -28 10 -20 9 -20 -5 -2 -14 17 -13 36 1 36 4 0 3 -3 0 -6z m-8355
-76 c-6 -6 -12 -6 -17 3 -6 8 -4 10 5 4 9 -5 10 -1 6 16 -6 21 -6 22 5 6 7
-13 8 -22 1 -29z m8368 -35 c0 -26 -16 -12 -18 15 -1 21 0 23 8 12 5 -8 10
-21 10 -27z m-8366 -8 c3 -8 1 -15 -4 -15 -6 0 -10 7 -10 15 0 8 2 15 4 15 2
0 6 -7 10 -15z m8372 -72 c14 -22 14 -25 2 -15 -13 10 -17 10 -21 0 -2 -7 -4
-1 -3 14 0 16 2 28 2 28 1 0 10 -12 20 -27z m-8379 0 c1 -10 5 -41 9 -69 4
-37 3 -54 -6 -59 -9 -5 -11 -4 -6 3 4 7 2 12 -3 12 -6 0 -11 5 -11 11 0 5 4 8
8 5 5 -3 9 1 9 9 0 8 -3 12 -6 10 -5 -3 -7 83 -2 93 3 6 7 0 8 -15z m3397 -58
c7 -19 -3 -47 -15 -39 -12 7 -12 54 0 54 5 0 11 -7 15 -15z m4978 -55 c2 -39
1 -70 -2 -70 -3 0 -5 -61 -4 -135 1 -74 -2 -138 -7 -140 -4 -3 -8 89 -8 205 0
115 4 210 9 210 4 0 10 -32 12 -70z m-4984 -115 c-2 -69 0 -96 10 -100 6 -2
12 -10 12 -17 0 -9 -3 -9 -11 2 -8 12 -10 10 -8 -10 2 -38 0 -50 -9 -50 -5 0
-9 61 -9 135 -1 81 3 135 9 135 5 0 8 -38 6 -95z m-3391 66 c0 -11 -5 -18 -9
-15 -4 3 -5 11 -1 19 7 21 12 19 10 -4z m-1 -46 c-3 -8 -1 -15 4 -15 6 0 10
-15 10 -32 l0 -33 -15 29 c-14 26 -13 66 2 66 3 0 3 -7 -1 -15z m4121 -77 c4
-7 76 -157 161 -333 84 -176 159 -327 168 -335 11 -12 41 -15 134 -15 66 0
120 -3 120 -7 0 -4 12 -3 26 2 31 12 37 12 30 2 -2 -4 4 -8 15 -8 10 0 19 4
19 9 0 5 34 7 75 6 41 -2 75 -6 75 -9 0 -9 32 -6 48 4 20 12 231 3 236 -10 6
-16 -50 -24 -65 -10 -7 6 -9 7 -6 1 3 -7 -113 -9 -344 -7 -192 1 -349 -1 -349
-6 0 -7 202 -432 472 -992 33 -69 125 -260 203 -425 350 -738 449 -945 717
-1500 157 -324 309 -642 338 -705 29 -63 126 -272 215 -465 89 -192 165 -358
168 -367 6 -16 26 -18 222 -18 l215 0 -3 50 c-2 28 0 50 4 50 5 0 9 -22 9 -49
l0 -48 148 -7 c82 -4 227 -6 323 -6 l174 2 3 -366 2 -366 -3660 0 -3660 0 0
363 0 364 203 6 c111 4 922 7 1801 7 880 0 1600 1 1601 2 2 2 5 245 7 541 l5
537 -1003 0 c-552 0 -1004 3 -1004 8 0 4 12 27 26 52 14 25 75 142 136 260 61
118 150 292 198 385 269 523 531 1047 526 1052 -3 3 1 11 8 17 16 12 153 271
349 661 69 138 205 403 302 589 97 187 177 349 178 360 2 19 -3 20 -60 18 -59
-3 -79 7 -51 24 7 4 8 3 4 -4 -4 -7 -2 -12 3 -12 6 0 11 6 11 13 0 9 2 9 9 -1
11 -17 21 -17 32 0 5 7 9 8 9 2 0 -6 13 -9 31 -6 39 6 36 -1 230 385 143 284
162 317 184 317 13 0 27 -6 32 -12z m-4122 -18 c-3 -5 -1 -10 4 -10 6 0 11 -9
11 -20 0 -11 -4 -20 -8 -20 -4 0 -8 -9 -8 -19 0 -11 4 -17 8 -15 4 3 8 -11 8
-30 0 -19 -4 -37 -9 -40 -4 -3 -7 -22 -5 -43 2 -31 1 -35 -8 -19 -6 10 -10 62
-9 114 2 90 5 112 17 112 3 0 2 -4 -1 -10z m3392 -152 c-3 -7 -5 -2 -5 12 0
14 2 19 5 13 2 -7 2 -19 0 -25z m1454 -35 c13 -16 12 -17 -3 -4 -10 7 -18 15
-18 17 0 8 8 3 21 -13z m3528 -47 c1 -45 -12 -22 -15 27 -3 31 -1 37 6 22 5
-11 9 -33 9 -49z m-8373 -35 c-4 -5 0 -12 6 -14 8 -3 6 -6 -4 -6 -18 -1 -24
10 -11 22 9 10 15 8 9 -2z m8372 -36 c-3 -3 -9 2 -12 12 -6 14 -5 15 5 6 7 -7
10 -15 7 -18z m-8360 -23 c2 -12 4 -22 5 -23 1 0 60 -3 132 -5 125 -5 145 -8
133 -20 -15 -14 -538 -7 -538 7 0 5 51 9 113 9 61 0 119 5 127 10 18 11 20 31
5 43 -6 5 -4 7 5 4 8 -2 16 -13 18 -25z m8355 -17 c-7 -21 -12 -19 -10 4 0 11
5 18 9 15 4 -3 5 -11 1 -19z m7 -42 c0 -5 -5 -15 -10 -23 -7 -12 -9 -10 -7 8
1 19 17 33 17 15z m-13 -85 c-3 -7 -5 -2 -5 12 0 14 2 19 5 13 2 -7 2 -19 0
-25z m9 -88 c-1 -78 -16 -78 -16 0 0 33 4 60 9 60 4 0 8 -27 7 -60z m-420 -92
l29 -33 -32 29 c-31 28 -38 36 -30 36 2 0 16 -15 33 -32z m-4550 -17 c-7 -10
100 -8 110 2 13 12 44 8 44 -6 0 -11 -22 -14 -91 -15 -80 -2 -90 0 -79 13 13
16 25 21 16 6z m1931 -7 c0 -17 -17 -19 -18 -1 0 10 -2 10 -6 0 -7 -18 -60
-16 -67 2 -4 12 4 14 43 14 33 -1 48 -6 48 -15z m-1977 -3 c0 -6 -5 -13 -12
-17 -6 -4 -8 -3 -4 4 3 5 0 13 -6 15 -8 3 -6 6 5 6 9 1 17 -3 17 -8z m4996
-413 l29 -33 -32 29 c-31 28 -38 36 -30 36 2 0 16 -15 33 -32z m-2901 -58 c10
-11 16 -20 13 -20 -3 0 -13 9 -23 20 -10 11 -16 20 -13 20 3 0 13 -9 23 -20z
m-265 -95 c13 -14 21 -25 18 -25 -2 0 -15 11 -28 25 -13 14 -21 25 -18 25 2 0
15 -11 28 -25z m-205 -215 c10 -11 16 -20 13 -20 -3 0 -13 9 -23 20 -10 11
-16 20 -13 20 3 0 13 -9 23 -20z m2901 -87 c-5 -15 -4 -15 9 1 8 11 15 15 15
9 0 -6 11 -8 25 -5 19 3 25 0 25 -14 0 -16 -2 -17 -10 -4 -5 8 -10 10 -10 5 0
-6 -15 -11 -32 -10 -23 0 -34 5 -36 18 -2 9 2 17 8 17 7 0 10 -7 6 -17z m209
6 c4 -6 19 -7 36 -4 16 4 29 3 29 -2 0 -4 -16 -9 -35 -10 -20 -2 -35 2 -35 8
0 5 -4 7 -10 4 -5 -3 -10 -1 -10 4 0 14 17 14 25 0z m-238 -14 c0 -12 -3 -12
-16 -2 -12 10 -13 9 -7 -1 6 -10 -1 -12 -27 -10 -46 3 -37 22 11 26 29 2 39
-2 39 -13z m203 -1 c0 -9 -7 -14 -17 -12 -25 5 -28 28 -4 28 12 0 21 -6 21
-16z m130 12 c0 -3 -4 -8 -10 -11 -5 -3 -10 -1 -10 4 0 6 5 11 10 11 6 0 10
-2 10 -4z m70 -4 c0 -5 -13 -8 -30 -8 -16 0 -30 3 -30 8 0 4 14 8 30 8 17 0
30 -4 30 -8z m25 -12 c3 -5 1 -10 -4 -10 -6 0 -11 5 -11 10 0 6 2 10 4 10 3 0
8 -4 11 -10z m-2595 -14 c0 -2 -7 -7 -16 -10 -8 -3 -12 -2 -9 4 6 10 25 14 25
6z m2679 -36 c11 -24 11 -24 -3 -6 -9 11 -16 24 -16 30 0 12 5 7 19 -24z
m-2682 -20 c-2 -23 -7 -44 -11 -47 -8 -8 -8 50 0 71 11 28 16 17 11 -24z
m2533 -135 c13 -14 21 -25 18 -25 -2 0 -15 11 -28 25 -13 14 -21 25 -18 25 2
0 15 -11 28 -25z m-2547 -15 c3 -11 1 -18 -4 -14 -5 3 -9 12 -9 20 0 20 7 17
13 -6z m10 -63 c3 -8 2 -20 -3 -26 -5 -9 -7 -4 -7 13 0 29 2 32 10 13z m6
-127 c-1 -25 -5 -58 -9 -75 -7 -27 -8 -25 -10 20 -3 66 -3 86 -1 110 3 40 21
-8 20 -55z m2732 10 c33 0 39 -3 39 -20 0 -18 -5 -20 -39 -16 -22 2 -45 8 -52
12 -8 4 -9 3 -5 -4 5 -8 0 -12 -13 -12 -12 0 -21 5 -21 12 0 9 -3 9 -12 0 -17
-17 -75 -15 -81 3 -9 21 2 24 69 24 41 -1 60 3 63 12 3 11 5 11 9 2 2 -8 20
-13 43 -13z m-335 -6 c-5 -13 -4 -14 7 -6 7 6 35 10 63 8 67 -5 64 -4 64 -20
0 -12 -15 -14 -77 -10 -43 3 -86 7 -96 9 -9 2 -15 -1 -12 -6 6 -9 -59 -6 -108
5 -19 4 -26 3 -22 -4 4 -6 -19 -10 -65 -10 -44 0 -69 4 -65 10 3 6 -1 7 -9 4
-9 -3 -16 -1 -16 5 0 12 7 13 192 11 78 -1 129 3 133 10 10 16 18 12 11 -6z
m-2408 -159 c-3 -3 -9 2 -12 12 -6 14 -5 15 5 6 7 -7 10 -15 7 -18z m2 -75 c0
-22 -2 -40 -4 -40 -2 0 -6 18 -8 40 -2 22 0 40 4 40 5 0 8 -18 8 -40z m2369
-34 c-2 -2 -13 8 -23 22 l-19 27 24 -22 c12 -12 21 -24 18 -27z m51 -80 c0 -6
-5 -4 -10 4 -5 8 -10 11 -10 6 0 -5 -7 -3 -15 4 -8 7 -12 17 -9 22 7 11 44
-20 44 -36z m-8524 2 c-4 6 -2 12 3 12 6 0 11 -3 11 -7 0 -5 18 -7 40 -7 22 1
42 -1 45 -5 5 -9 -15 -12 -69 -11 -43 1 -56 6 -56 22 0 6 7 5 17 -3 11 -10 14
-10 9 -1z m269 -3 c39 -13 39 -13 -45 -12 -47 0 -77 2 -67 5 9 2 17 8 17 13 0
13 48 10 95 -6z m332 1 c45 0 83 -4 83 -8 0 -11 -245 -13 -262 -2 -4 3 -8 1
-8 -4 0 -13 -57 -9 -70 4 -8 8 8 11 51 12 33 0 63 3 66 6 3 3 17 3 31 -1 14
-3 63 -6 109 -7z m-697 -9 c0 -9 -12 -11 -40 -9 -22 2 -40 7 -40 11 0 4 18 8
40 9 26 1 40 -2 40 -11z m60 4 c0 -15 -16 -22 -34 -15 -25 9 -19 24 9 24 14 0
25 -4 25 -9z m2350 -2 c0 -3 -18 -6 -41 -6 -26 0 -36 3 -27 8 15 10 68 8 68
-2z m74 -1 c-7 -11 -35 -10 -53 1 -9 6 -2 8 22 8 20 -1 33 -5 31 -9z m95 -3
c2 -3 -14 -5 -37 -5 -23 0 -42 5 -42 11 0 10 68 5 79 -6z m46 5 c3 -6 -1 -7
-9 -4 -18 7 -21 14 -7 14 6 0 13 -4 16 -10z m55 0 c0 -5 -4 -10 -10 -10 -5 0
-10 5 -10 10 0 6 5 10 10 10 6 0 10 -4 10 -10z m30 0 c0 -5 -4 -10 -10 -10 -5
0 -10 5 -10 10 0 6 5 10 10 10 6 0 10 -4 10 -10z m40 -2 c0 -4 -4 -8 -9 -8 -6
0 -12 4 -15 8 -3 5 1 9 9 9 8 0 15 -4 15 -9z m86 -1 c4 -4 -2 -7 -14 -7 -11 0
-23 4 -26 8 -6 10 30 9 40 -1z m34 3 c0 -5 -2 -10 -4 -10 -3 0 -8 5 -11 10 -3
6 -1 10 4 10 6 0 11 -4 11 -10z m150 0 c0 -3 -26 -7 -57 -7 -37 -1 -51 2 -38
7 23 9 95 9 95 0z m55 -1 c4 -5 -3 -9 -14 -9 -26 0 -35 15 -11 17 11 1 22 -2
25 -8z m33 -3 c-7 -8 -15 -12 -17 -11 -5 6 10 25 20 25 5 0 4 -6 -3 -14z m232
0 c14 -2 -22 -4 -80 -4 -58 -1 -110 2 -117 6 -10 6 140 5 197 -2z m-1107 -3
c-7 -2 -21 -2 -30 0 -10 3 -4 5 12 5 17 0 24 -2 18 -5z m907 -7 c0 -2 -7 -7
-16 -10 -8 -3 -12 -2 -9 4 6 10 25 14 25 6z m3070 -56 c-7 -12 -10 -33 -7 -46
2 -13 0 -24 -4 -24 -5 0 -9 22 -9 49 0 27 -3 57 -7 67 -6 16 -3 15 16 -3 19
-18 21 -24 11 -43z m-7 -93 c3 -8 -1 -14 -8 -14 -7 0 -11 6 -8 14 3 7 6 13 8
13 2 0 5 -6 8 -13z m-5 -62 c-3 -3 -9 2 -12 12 -6 14 -5 15 5 6 7 -7 10 -15 7
-18z m-1 -47 c-3 -8 -6 -5 -6 6 -1 11 2 17 5 13 3 -3 4 -12 1 -19z m2708 -8
c3 -5 1 -10 -4 -10 -6 0 -11 5 -11 10 0 6 2 10 4 10 3 0 8 -4 11 -10z m-6 -97
c1 -7 -3 -13 -7 -13 -4 0 -8 17 -9 38 -1 32 0 34 7 12 4 -14 8 -31 9 -37z m-1
-64 c-3 -8 -7 -3 -11 10 -4 17 -3 21 5 13 5 -5 8 -16 6 -23z m-1 -41 c-3 -8
-6 -5 -6 6 -1 11 2 17 5 13 3 -3 4 -12 1 -19z m-3 -138 c1 -16 -2 -30 -6 -30
-5 0 -8 17 -8 37 0 43 13 37 14 -7z m7 -407 c13 -16 12 -17 -3 -4 -10 7 -18
15 -18 17 0 8 8 3 21 -13z m-7 -89 c3 -8 2 -12 -4 -9 -6 3 -10 10 -10 16 0 14
7 11 14 -7z m6 -34 c0 -5 -2 -10 -4 -10 -3 0 -8 5 -11 10 -3 6 -1 10 4 10 6 0
11 -4 11 -10z m-1354 -948 c-6 -39 -6 -39 -16 -14 -10 25 -3 55 11 46 5 -3 7
-18 5 -32z m1344 18 c0 -5 -2 -10 -4 -10 -3 0 -8 5 -11 10 -3 6 -1 10 4 10 6
0 11 -4 11 -10z m-6260 -77 c0 -19 -3 -24 -10 -17 -6 6 -8 18 -4 27 9 24 14
21 14 -10z m6268 2 c-3 -3 -9 2 -12 12 -6 14 -5 15 5 6 7 -7 10 -15 7 -18z
m-1361 -17 c-3 -7 -5 -2 -5 12 0 14 2 19 5 13 2 -7 2 -19 0 -25z m13 -63 c0
-14 -4 -25 -10 -25 -5 0 -10 11 -10 25 0 14 5 25 10 25 6 0 10 -11 10 -25z
m1344 -1 c3 -8 2 -12 -4 -9 -6 3 -10 10 -10 16 0 14 7 11 14 -7z m-6267 -36
c-3 -8 -6 -5 -6 6 -1 11 2 17 5 13 3 -3 4 -12 1 -19z m4923 -49 c0 -11 -4 -17
-10 -14 -5 3 -10 15 -10 26 0 11 5 17 10 14 6 -3 10 -15 10 -26z m-3240 6 c0
-14 -78 -15 -700 -15 -602 1 -700 3 -700 16 0 12 97 14 700 14 621 0 700 -2
700 -15z m-1680 -30 c0 -8 -2 -15 -4 -15 -2 0 -6 7 -10 15 -3 8 -1 15 4 15 6
0 10 -7 10 -15z m4920 -97 c0 -45 -3 -78 -7 -74 -11 11 -13 156 -2 156 5 0 9
-37 9 -82z m-4926 37 c3 -8 1 -15 -4 -15 -6 0 -10 7 -10 15 0 8 2 15 4 15 2 0
6 -7 10 -15z m5397 -37 c0 -10 2 -10 6 0 2 7 22 12 44 12 28 0 38 -4 33 -12
-5 -8 -2 -9 9 -5 10 3 17 2 17 -4 0 -7 -43 -9 -120 -8 -66 1 -120 7 -120 11 0
5 22 8 50 7 27 -2 53 0 56 4 11 11 24 8 25 -5z m-5391 -63 c0 -8 -4 -15 -8
-15 -5 0 -9 7 -9 15 0 8 4 15 9 15 4 0 8 -7 8 -15z m0 -61 c0 -13 -4 -24 -8
-24 -5 0 -8 13 -8 29 0 17 3 28 8 25 4 -3 8 -16 8 -30z m4919 -58 c0 -55 -2
-59 -15 -42 -15 22 -18 39 -7 50 4 4 6 24 5 44 -2 26 0 33 7 23 5 -8 9 -42 10
-75z m-4927 -28 c-9 -9 -12 -7 -12 12 0 19 3 21 12 12 9 -9 9 -15 0 -24z
m4925 -68 c1 -11 -2 -20 -8 -20 -10 0 -12 23 -2 33 9 9 9 10 10 -13z m-4917
-50 c0 -5 -4 -10 -10 -10 -5 0 -10 5 -10 10 0 6 5 10 10 10 6 0 10 -4 10 -10z
m-2093 -822 c-3 -8 -6 -5 -6 6 -1 11 2 17 5 13 3 -3 4 -12 1 -19z m3 -173 c0
-17 -25 -20 -35 -5 -3 6 1 7 9 4 9 -3 16 -1 16 5 0 6 2 11 5 11 3 0 5 -7 5
-15z m3379 -221 c4 3 7 -4 7 -15 0 -10 -4 -19 -8 -19 -4 0 -8 4 -8 9 0 5 -2
15 -3 23 -2 7 -2 10 0 5 3 -4 8 -5 12 -3z m2278 -81 c-3 -10 -5 -4 -5 12 0 17
2 24 5 18 2 -7 2 -21 0 -30z m-2273 2 c3 -8 1 -15 -4 -15 -6 0 -10 7 -10 15 0
8 2 15 4 15 2 0 6 -7 10 -15z m2273 -57 c-3 -7 -5 -2 -5 12 0 14 2 19 5 13 2
-7 2 -19 0 -25z m-2275 15 c-10 -4 -10 -8 0 -21 12 -15 11 -16 -4 -3 -19 14
-15 32 5 30 8 0 8 -2 -1 -6z m6 -68 c-3 -3 -9 2 -12 12 -6 14 -5 15 5 6 7 -7
10 -15 7 -18z m2273 -2 c6 -33 3 -143 -4 -143 -5 0 -7 7 -3 15 3 8 0 15 -7 16
-7 0 -8 2 -1 5 11 5 10 55 -1 75 -5 8 -4 10 3 5 16 -9 15 7 0 22 -9 9 -9 12 0
12 7 0 13 -3 13 -7z m-2274 -48 c-1 -19 -4 -35 -8 -35 -4 0 -6 16 -6 35 1 19
4 35 8 35 4 0 6 -16 6 -35z m3 -94 c0 -6 -4 -12 -8 -15 -5 -3 -9 1 -9 9 0 8 4
15 9 15 4 0 8 -4 8 -9z m2275 -56 c0 -26 -5 -40 -15 -42 -13 -4 -13 -3 0 6 13
10 13 11 0 11 -12 0 -12 2 -1 9 8 5 9 11 3 15 -14 8 -11 47 3 43 5 -2 10 -21
10 -42z m-2281 10 c3 -8 1 -15 -4 -15 -6 0 -10 7 -10 15 0 8 2 15 4 15 2 0 6
-7 10 -15z m1 -45 c3 -5 1 -10 -4 -10 -6 0 -11 5 -11 10 0 6 2 10 4 10 3 0 8
-4 11 -10z m-3398 -77 c-3 -10 -5 -4 -5 12 0 17 2 24 5 18 2 -7 2 -21 0 -30z
m3398 -2 c3 -5 2 -12 -3 -15 -5 -3 -9 1 -9 9 0 17 3 19 12 6z"/>
<path d="M3915 9490 c3 -5 8 -10 11 -10 2 0 4 5 4 10 0 6 -5 10 -11 10 -5 0
-7 -4 -4 -10z"/>
<path d="M1121 9344 c0 -11 3 -14 6 -6 3 7 2 16 -1 19 -3 4 -6 -2 -5 -13z"/>
<path d="M6148 6703 c6 -2 18 -2 25 0 6 3 1 5 -13 5 -14 0 -19 -2 -12 -5z"/>
<path d="M6198 6703 c6 -2 18 -2 25 0 6 3 1 5 -13 5 -14 0 -19 -2 -12 -5z"/>
<path d="M1121 7264 c0 -11 3 -14 6 -6 3 7 2 16 -1 19 -3 4 -6 -2 -5 -13z"/>
<path d="M4648 6703 c7 -3 16 -2 19 1 4 3 -2 6 -13 5 -11 0 -14 -3 -6 -6z"/>
<path d="M1068 5053 c7 -3 16 -2 19 1 4 3 -2 6 -13 5 -11 0 -14 -3 -6 -6z"/>
<path d="M8131 2424 c0 -11 3 -14 6 -6 3 7 2 16 -1 19 -3 4 -6 -2 -5 -13z"/>
</g>
</svg>
